<svg width="17" height="18" viewBox="0 0 17 18" fill="none" xmlns="http://www.w3.org/2000/svg">
<path d="M7.43659 18C7.20459 18 7.00301 17.9237 6.83184 17.7712C6.66067 17.6186 6.55459 17.4282 6.51359 17.2L6.25009 15.1077C5.93092 15.0116 5.58575 14.8603 5.21459 14.6538C4.84342 14.4474 4.52775 14.2263 4.26759 13.9905L2.35209 14.8135C2.14059 14.907 1.92584 14.9173 1.70784 14.8443C1.48984 14.7711 1.32192 14.6326 1.20409 14.4288L0.125087 12.5712C0.00725389 12.3674 -0.0273293 12.1546 0.0213374 11.9327C0.070004 11.7109 0.186004 11.5288 0.369337 11.3865L2.04059 10.1365C2.01109 9.95583 1.98675 9.76967 1.96759 9.578C1.94825 9.38633 1.93859 9.20008 1.93859 9.01925C1.93859 8.85125 1.94825 8.67467 1.96759 8.4895C1.98675 8.30417 2.01109 8.0955 2.04059 7.8635L0.369337 6.6135C0.186004 6.47117 0.0731705 6.28592 0.0308371 6.05775C-0.0113296 5.82958 0.026504 5.6135 0.144337 5.4095L1.20409 3.6095C1.32192 3.4185 1.48984 3.28325 1.70784 3.20375C1.92584 3.12425 2.14059 3.13133 2.35209 3.225L4.24834 4.02875C4.547 3.78008 4.87009 3.55575 5.21759 3.35575C5.56492 3.15575 5.90267 3.00125 6.23084 2.89225L6.51359 0.8C6.55459 0.571833 6.66067 0.381417 6.83184 0.228751C7.00301 0.0762506 7.20459 0 7.43659 0H9.51759C9.74959 0 9.95117 0.0762506 10.1223 0.228751C10.2935 0.381417 10.3996 0.571833 10.4406 0.8L10.7041 2.9115C11.0874 3.04617 11.4262 3.20067 11.7203 3.375C12.0145 3.54933 12.3174 3.76725 12.6291 4.02875L14.6213 3.225C14.8328 3.13133 15.0476 3.12425 15.2656 3.20375C15.4836 3.28325 15.6515 3.4185 15.7693 3.6095L16.8291 5.42875C16.9469 5.63258 16.9815 5.84542 16.9328 6.06725C16.8842 6.28908 16.7682 6.47117 16.5848 6.6135L14.8366 7.92125C14.8918 8.12758 14.9226 8.317 14.9291 8.4895C14.9354 8.66183 14.9386 8.832 14.9386 9C14.9386 9.15517 14.9322 9.31892 14.9193 9.49125C14.9065 9.66375 14.877 9.87242 14.8308 10.1173L16.5213 11.3865C16.7047 11.5288 16.8239 11.7109 16.8791 11.9327C16.9341 12.1546 16.9027 12.3674 16.7848 12.5712L15.7193 14.4095C15.6015 14.6135 15.4303 14.752 15.2058 14.825C14.9815 14.898 14.7636 14.8878 14.5521 14.7943L12.6291 13.9712C12.3174 14.2327 12.0039 14.4571 11.6886 14.6443C11.3733 14.8314 11.0451 14.9795 10.7041 15.0885L10.4406 17.2C10.3996 17.4282 10.2935 17.6186 10.1223 17.7712C9.95117 17.9237 9.74959 18 9.51759 18H7.43659ZM7.47709 17H9.43284L9.80209 14.2923C10.3059 14.1589 10.7594 13.9759 11.1626 13.7432C11.5659 13.5106 11.9765 13.1917 12.3943 12.7865L14.8886 13.85L15.8828 12.15L13.6943 10.5058C13.7777 10.2211 13.8328 9.95925 13.8598 9.72025C13.8867 9.48108 13.9001 9.241 13.9001 9C13.9001 8.74617 13.8867 8.50608 13.8598 8.27975C13.8328 8.05358 13.7777 7.80458 13.6943 7.53275L15.9213 5.85L14.9271 4.15L12.3751 5.21925C12.0726 4.88725 11.6748 4.576 11.1818 4.2855C10.689 3.99517 10.2227 3.80258 9.78284 3.70775L9.47709 1H7.48284L7.17134 3.6885C6.6675 3.79617 6.20434 3.96958 5.78184 4.20875C5.3595 4.44775 4.93934 4.77625 4.52134 5.19425L2.02709 4.15L1.03284 5.85L3.20209 7.46925C3.11875 7.69358 3.06042 7.93717 3.02709 8.2C2.99375 8.46283 2.97709 8.73592 2.97709 9.01925C2.97709 9.27308 2.99375 9.525 3.02709 9.775C3.06042 10.025 3.11234 10.2686 3.18284 10.5058L1.03284 12.15L2.02709 13.85L4.50209 12.8C4.89442 13.1962 5.30175 13.5138 5.72409 13.753C6.14659 13.992 6.62259 14.1782 7.15209 14.3115L7.47709 17ZM8.45009 11.5C9.14759 11.5 9.73867 11.2577 10.2233 10.773C10.7078 10.2885 10.9501 9.6975 10.9501 9C10.9501 8.3025 10.7078 7.7115 10.2233 7.227C9.73867 6.74233 9.14759 6.5 8.45009 6.5C7.74892 6.5 7.15692 6.74233 6.67409 7.227C6.19142 7.7115 5.95009 8.3025 5.95009 9C5.95009 9.6975 6.19142 10.2885 6.67409 10.773C7.15692 11.2577 7.74892 11.5 8.45009 11.5Z" fill="#2E2E2E"/>
</svg>
